<?xml version="1.0" standalone="no"?>
<!DOCTYPE svg PUBLIC "-//W3C//DTD SVG 20010904//EN"
 "http://www.w3.org/TR/2001/REC-SVG-20010904/DTD/svg10.dtd">
<svg version="1.0" xmlns="http://www.w3.org/2000/svg"
 width="437.000000pt" height="437.000000pt" viewBox="0 0 437.000000 437.000000"
 preserveAspectRatio="xMidYMid meet">
<metadata>
Created by potrace 1.14, written by Peter Selinger 2001-2017
</metadata>
<g transform="translate(0.000000,437.000000) scale(0.100000,-0.100000)"
fill="#000000" stroke="none">
<path d="M250 2528 c0 -8 -16 -14 -42 -15 -25 -1 -47 -8 -54 -17 -6 -9 -19
-16 -28 -16 -9 0 -16 -5 -16 -11 0 -5 6 -7 13 -4 6 4 4 0 -5 -8 -10 -8 -14
-18 -10 -23 4 -4 -2 -2 -12 6 -12 9 -17 10 -13 3 4 -7 0 -20 -10 -31 -10 -10
-20 -27 -21 -37 -2 -11 -8 -23 -14 -26 -5 -3 -10 -20 -10 -37 -1 -18 -6 -32
-12 -32 -6 0 -4 -5 4 -10 13 -9 13 -10 -1 -10 -13 0 -15 -13 -15 -75 1 -44 6
-79 14 -87 15 -15 16 -31 0 -22 -7 4 -1 -8 12 -26 13 -18 19 -30 12 -26 -7 4
-12 1 -12 -8 0 -9 6 -15 12 -14 7 2 14 -7 16 -18 2 -12 14 -26 28 -32 22 -11
29 -23 25 -46 -1 -5 6 -3 15 5 12 9 15 9 10 2 -6 -12 5 -18 27 -14 4 0 7 -9 8
-21 0 -13 3 -17 6 -11 3 10 12 9 38 -1 23 -10 35 -11 37 -4 3 7 9 6 18 -4 13
-14 16 -14 27 1 12 14 13 14 8 0 -5 -12 0 -16 19 -15 14 1 29 6 33 10 4 5 2 6
-4 2 -7 -4 -13 -3 -13 2 0 6 16 9 35 7 19 -2 37 0 40 5 3 5 12 7 21 3 9 -3 14
0 12 8 -2 7 3 14 10 15 6 1 17 2 23 3 5 0 7 6 4 11 -3 6 1 10 9 10 9 0 16 7
16 15 0 8 5 15 10 15 6 0 10 7 10 15 0 8 7 15 15 15 8 0 14 3 14 8 -1 4 -1 19
0 34 1 20 5 26 16 22 8 -4 15 -2 15 4 0 6 -6 13 -12 15 -10 4 -10 6 0 6 6 1
12 5 12 9 0 9 0 9 -78 14 -58 4 -66 -1 -71 -44 -1 -9 -4 -8 -11 2 -8 12 -10 9
-10 -12 0 -18 -5 -28 -15 -28 -8 0 -15 -6 -15 -14 0 -10 -19 -14 -76 -15 -75
-2 -76 -1 -110 34 -23 24 -34 47 -36 70 -2 34 -13 46 -20 24 -2 -6 -4 25 -4
69 1 55 4 78 12 75 6 -2 11 4 11 14 0 56 4 73 18 73 8 0 14 3 14 8 -4 21 3 31
16 25 10 -3 15 -1 13 8 -2 7 9 15 27 19 17 3 29 12 27 19 -1 7 2 10 8 6 6 -3
7 -11 4 -17 -4 -6 -1 -8 7 -6 8 3 13 12 11 19 -1 9 3 8 11 -3 8 -11 28 -18 46
-18 22 0 30 -4 25 -12 -5 -8 -2 -9 10 -5 9 4 15 3 12 -2 -3 -5 1 -14 8 -21 8
-6 17 -24 21 -39 5 -26 9 -27 65 -27 33 0 60 4 60 8 0 5 -5 6 -12 2 -7 -4 -8
-3 -4 5 6 9 11 9 21 1 16 -13 16 5 0 30 -8 13 -12 28 -17 68 -1 6 -7 12 -15
12 -7 0 -13 9 -13 20 0 11 -3 19 -7 19 -5 -1 -15 -1 -23 0 -13 1 -13 2 0 11
13 8 12 10 -5 11 -11 1 -24 1 -29 0 -5 -1 -6 4 -3 12 3 7 0 14 -6 15 -73 5
-112 12 -115 21 -5 15 -32 14 -32 -1 0 -9 -3 -9 -9 1 -8 13 -12 13 -27 0 -11
-9 -15 -9 -10 -1 4 6 2 12 -3 12 -6 0 -11 -6 -11 -12z m-225 -287 c3 -5 2 -12
-3 -15 -5 -3 -9 1 -9 9 0 17 3 19 12 6z m1 -102 c0 -21 -2 -37 -5 -34 -3 3 -5
23 -6 45 -1 22 1 37 4 34 3 -3 6 -23 7 -45z"/>
<path d="M356 2528 c3 -5 10 -6 15 -3 13 9 11 12 -6 12 -8 0 -12 -4 -9 -9z"/>
<path d="M1779 2509 c-16 -9 -18 -36 -7 -61 5 -10 3 -20 -3 -24 -8 -4 -7 -9 2
-15 10 -6 11 -9 2 -9 -7 0 -13 -5 -13 -11 0 -5 6 -7 13 -3 10 6 10 4 0 -7 -15
-15 -17 -33 -4 -24 5 3 13 0 17 -6 4 -7 3 -9 -4 -5 -6 3 -13 2 -16 -3 -4 -5
-2 -13 4 -16 7 -4 8 -11 2 -18 -11 -14 -10 -46 3 -66 5 -9 4 -12 -2 -8 -13 8
-11 -52 2 -73 5 -9 4 -11 -3 -6 -15 9 -12 -36 3 -46 6 -5 5 -8 -4 -8 -10 0
-11 -3 -2 -14 9 -11 9 -16 0 -21 -8 -6 -7 -10 2 -16 10 -6 11 -9 2 -9 -7 0
-13 -5 -13 -11 0 -5 6 -7 13 -3 10 6 10 4 0 -7 -15 -15 -17 -33 -4 -24 5 3 13
0 17 -6 4 -7 3 -9 -4 -5 -6 3 -13 2 -16 -3 -4 -5 -2 -13 4 -16 8 -5 7 -11 -1
-21 -9 -11 -8 -14 2 -14 9 0 10 -3 4 -8 -6 -4 -10 -13 -9 -19 1 -7 2 -17 3
-22 1 -12 51 -21 51 -9 0 5 6 5 16 0 19 -11 66 -3 58 9 -3 5 -11 6 -17 3 -7
-4 -8 -3 -4 2 5 5 14 9 20 9 5 0 12 6 15 14 3 8 0 11 -6 7 -10 -6 -26 23 -17
32 3 3 5 -1 5 -9 0 -12 2 -12 9 0 7 10 4 19 -7 29 -9 7 -12 11 -5 8 7 -4 12 1
12 11 1 42 5 53 19 53 11 0 12 3 3 13 -8 11 -6 13 11 12 22 -2 40 -32 30 -50
-3 -5 1 -5 9 2 12 10 15 8 16 -8 1 -10 9 -26 17 -34 8 -8 13 -24 11 -35 -2
-11 1 -19 8 -17 7 1 11 -4 9 -10 -1 -7 3 -13 9 -13 6 0 9 -7 6 -14 -4 -10 -1
-13 7 -10 8 3 17 0 21 -5 3 -6 10 -9 14 -6 5 2 34 5 65 6 39 2 56 6 56 16 0 7
-6 12 -12 11 -8 -2 -13 9 -13 29 0 24 -3 29 -12 21 -12 -10 -18 0 -14 25 0 4
-6 7 -14 7 -14 0 -20 17 -16 48 1 7 -3 11 -10 10 -6 -2 -13 6 -15 17 -1 11
-10 25 -18 31 -9 6 -16 19 -16 29 0 12 -5 15 -16 11 -14 -5 -15 -4 -4 9 8 10
9 15 1 15 -6 0 -11 7 -11 16 0 9 5 12 12 8 8 -5 9 -2 5 9 -4 12 -1 17 9 17 11
0 14 6 10 18 -5 14 -3 13 10 -3 l16 -20 -4 20 c-2 12 2 19 9 18 7 -2 10 4 7
12 -4 11 1 15 17 15 19 0 21 2 9 10 -11 7 -11 10 -2 10 7 0 17 10 22 23 5 12
9 16 9 9 1 -7 5 -11 10 -8 5 3 7 15 4 25 -3 14 -13 19 -33 19 -15 -1 -33 3
-40 7 -9 5 -11 4 -6 -4 5 -8 -1 -10 -23 -6 -23 4 -33 1 -38 -11 -5 -13 -7 -13
-14 -2 -7 10 -9 8 -10 -7 -1 -11 -1 -23 0 -27 0 -5 -8 -8 -19 -8 -13 0 -18 -5
-14 -15 4 -9 0 -15 -10 -15 -9 0 -16 -7 -16 -16 0 -10 -5 -14 -15 -10 -11 4
-15 0 -13 -12 2 -12 -5 -18 -22 -20 -20 -2 -22 -1 -10 7 13 9 12 11 -5 12 -11
0 -14 3 -7 6 10 4 10 8 1 19 -9 12 -9 13 3 9 9 -4 15 0 15 9 0 8 -4 13 -8 11
-4 -3 -10 2 -13 11 -9 23 -7 31 3 16 7 -11 9 -11 14 2 4 9 1 16 -6 16 -8 0 -6
4 3 10 12 8 12 10 -5 11 -11 0 -14 3 -7 6 10 4 10 8 1 19 -9 12 -9 13 3 9 9
-4 15 0 15 9 0 8 -4 13 -9 10 -4 -3 -8 -3 -8 0 0 2 -3 13 -6 23 -4 13 -3 14 4
5 7 -11 10 -11 15 2 4 9 1 16 -6 16 -8 0 -6 4 3 10 12 8 12 10 -5 11 -11 0
-14 3 -7 6 10 4 10 8 1 19 -10 12 -8 13 7 8 15 -5 16 -4 7 6 -13 14 -104 21
-124 9z"/>
<path d="M2269 2500 c0 -8 0 -152 -1 -320 l-1 -305 34 -5 c56 -9 87 -1 82 20
-8 30 12 30 45 0 23 -20 38 -27 54 -22 21 5 22 4 8 -14 -14 -18 -14 -18 2 -5
10 7 24 11 32 8 8 -3 17 -3 21 1 4 4 19 8 33 8 15 1 33 2 40 3 6 1 12 8 12 16
0 8 4 15 10 15 18 0 50 34 50 53 0 9 7 20 15 23 13 5 13 9 3 22 -11 13 -11 14
0 8 10 -6 13 -2 10 15 -2 13 2 23 7 22 6 -1 11 13 12 30 1 25 0 28 -7 12 -5
-14 -8 -6 -7 27 1 26 5 44 10 41 5 -3 3 5 -4 18 -6 13 -14 36 -15 52 -2 15
-11 35 -19 44 -9 9 -14 22 -10 31 5 13 3 13 -12 1 -13 -11 -15 -11 -9 -1 5 9
1 15 -13 19 -12 3 -21 11 -21 18 0 7 -10 11 -22 11 -13 -1 -29 2 -36 8 -8 6
-35 11 -60 12 -40 2 -42 1 -17 -6 29 -7 29 -8 5 -10 -14 -2 -35 -2 -47 -2 -13
1 -22 -4 -20 -11 1 -7 -6 -12 -15 -12 -9 0 -20 -4 -25 -9 -4 -5 -3 -6 5 -2 6
4 12 3 12 -2 0 -6 -6 -12 -13 -15 -18 -7 -16 75 2 97 12 14 12 16 -1 11 -11
-5 -14 3 -12 37 2 59 3 60 16 52 7 -4 8 -3 4 5 -4 6 -12 9 -17 6 -5 -4 -9 -3
-9 2 0 4 -25 8 -55 8 -43 1 -55 -2 -56 -15z m227 -255 c9 -8 20 -15 27 -15 6
0 2 7 -9 15 -15 12 -11 12 19 -2 33 -15 42 -29 38 -55 0 -5 7 -8 17 -8 15 -1
15 -2 -3 -17 -16 -12 -17 -14 -3 -10 14 5 17 1 16 -16 0 -12 0 -26 2 -32 7
-30 -1 -65 -16 -65 -13 0 -14 -3 -5 -14 8 -10 9 -16 1 -21 -6 -3 -7 -11 -4
-17 4 -7 2 -8 -5 -4 -6 4 -9 12 -6 17 4 5 4 9 1 9 -3 0 -12 -12 -20 -27 -9
-16 -15 -21 -16 -13 0 13 -2 13 -9 1 -12 -19 -51 -22 -44 -4 3 7 0 13 -6 13
-6 0 -11 -6 -11 -12 0 -7 -10 1 -21 17 -12 17 -19 22 -15 13 3 -10 1 -18 -4
-18 -6 0 -10 13 -10 29 0 16 -5 31 -12 33 -7 3 -12 29 -13 66 -2 48 1 65 14
72 9 5 12 10 7 10 -6 0 -1 7 10 16 10 8 12 13 4 9 -8 -4 -6 1 5 9 11 9 25 14
32 12 7 -3 15 0 19 6 5 7 2 8 -6 3 -9 -5 -11 -4 -6 3 9 16 14 15 32 -3z"/>
<path d="M3919 2503 c-1 -7 -2 -21 -2 -30 -1 -10 -6 -21 -12 -25 -6 -5 -6 -8
3 -8 6 0 12 -7 12 -16 0 -9 -5 -12 -12 -8 -9 5 -9 2 1 -9 11 -14 11 -17 0 -17
-9 0 -10 -3 -3 -8 15 -11 12 -68 -4 -64 -8 1 -11 -2 -7 -8 3 -6 10 -8 14 -5
12 7 8 -89 -4 -97 -6 -5 -5 -8 3 -8 6 0 12 -7 12 -16 0 -9 -5 -12 -12 -8 -9 5
-9 2 1 -9 11 -14 11 -17 0 -17 -9 0 -10 -3 -3 -8 15 -11 12 -68 -4 -64 -8 1
-11 -2 -7 -8 3 -6 9 -8 13 -6 4 2 8 -27 9 -65 1 -38 -2 -67 -6 -65 -4 3 -7 -4
-7 -14 0 -10 4 -16 8 -14 4 3 8 -4 8 -14 0 -21 35 -36 54 -25 6 4 22 7 35 7
25 1 25 3 26 78 0 42 4 80 9 85 5 5 6 2 1 -6 -5 -9 -4 -12 3 -7 7 4 12 13 12
21 0 7 7 15 15 19 10 4 15 -1 16 -17 0 -21 1 -21 9 -2 8 17 9 18 11 3 1 -10 2
-24 3 -30 1 -7 7 -12 14 -10 7 1 13 -5 13 -13 1 -8 3 -19 4 -25 1 -5 3 -15 4
-21 0 -5 6 -7 11 -4 6 4 10 -5 10 -19 0 -16 6 -26 15 -26 8 0 14 -5 13 -12 -4
-16 33 -24 91 -20 44 3 49 6 49 29 0 13 -7 27 -14 30 -8 3 -14 16 -14 29 0 15
-6 24 -15 24 -8 0 -15 6 -15 14 0 8 -5 16 -10 18 -6 2 -12 13 -13 26 0 12 -7
22 -14 22 -11 0 -18 27 -14 53 1 5 -3 6 -9 2 -6 -3 -7 -12 -4 -18 4 -7 3 -9
-1 -4 -5 4 -10 18 -12 30 -2 12 -8 24 -13 25 -6 2 -10 11 -10 20 0 15 2 15 10
2 8 -13 10 -12 10 3 0 10 19 37 42 60 23 23 41 46 40 50 -1 5 2 6 8 2 5 -3 15
6 20 20 6 16 15 23 21 19 7 -4 10 -1 7 7 -3 9 -20 14 -49 14 -24 0 -50 4 -58
9 -10 6 -12 5 -7 -3 5 -8 0 -10 -19 -7 -20 4 -28 0 -34 -17 -5 -12 -7 -25 -4
-29 2 -4 -3 -5 -11 -2 -9 3 -16 1 -16 -6 0 -6 -5 -8 -12 -4 -8 5 -8 1 2 -12 8
-10 10 -16 6 -12 -5 4 -15 0 -23 -10 -8 -9 -12 -11 -8 -4 3 6 2 12 -3 12 -5 0
-12 -14 -16 -31 -3 -17 -10 -28 -16 -24 -5 3 -10 -1 -10 -9 0 -9 -5 -16 -11
-16 -6 0 -8 7 -5 16 3 8 2 12 -4 9 -6 -3 -10 1 -10 10 0 9 4 14 9 10 5 -3 13
-1 16 5 4 6 1 9 -7 8 -10 -2 -13 22 -14 112 0 63 3 120 7 125 4 6 2 17 -4 25
-15 20 -116 22 -118 3z"/>
<path d="M815 2361 c-3 -11 -14 -18 -27 -17 -24 1 -88 -56 -88 -79 0 -7 -4
-17 -10 -20 -6 -4 -7 1 -4 12 5 15 4 16 -5 3 -6 -8 -11 -24 -11 -34 0 -10 -8
-25 -17 -32 -17 -13 -17 -14 2 -7 18 6 19 5 6 -11 -20 -24 -21 -86 -3 -116 14
-23 14 -24 -1 -11 -12 9 -17 10 -17 2 0 -6 6 -14 13 -17 7 -2 14 -19 15 -37 2
-17 7 -36 13 -42 7 -7 8 -4 4 10 -6 16 -5 17 4 5 6 -8 11 -23 11 -32 0 -10 7
-18 15 -18 8 0 15 -8 15 -17 0 -9 3 -13 7 -10 3 4 12 -1 20 -11 10 -11 12 -12
8 -2 -6 13 -4 13 7 0 7 -9 25 -15 41 -13 18 1 25 -2 21 -9 -5 -7 -2 -8 7 -2
22 13 38 13 33 0 -3 -7 2 -13 10 -13 8 0 12 5 10 11 -3 7 18 11 58 12 44 1 65
6 73 18 7 9 15 16 19 16 15 0 47 39 49 58 1 14 5 18 12 12 8 -7 12 -1 13 18 4
60 8 80 22 98 13 16 13 17 -1 12 -12 -5 -15 2 -16 31 -1 100 -3 111 -18 111
-8 0 -14 3 -14 8 4 21 -2 43 -10 38 -5 -3 -11 4 -14 15 -4 15 -11 20 -22 15
-9 -3 -13 -2 -10 4 7 11 -32 33 -44 26 -5 -3 -11 1 -15 9 -3 8 -11 15 -18 15
-9 0 -9 -3 2 -10 12 -7 10 -9 -7 -7 -12 0 -20 4 -17 8 2 4 -7 9 -21 11 -14 3
-25 2 -25 -3 0 -4 -12 -6 -26 -3 -14 3 -23 1 -20 -4 3 -5 -1 -9 -8 -9 -8 0
-12 6 -9 14 3 7 3 13 0 13 -3 0 -8 -8 -12 -19z m106 -113 c0 -10 2 -10 6 0 2
6 9 12 14 12 6 0 7 -5 4 -11 -4 -6 2 -13 14 -16 12 -3 21 -12 21 -19 0 -22 3
-28 18 -43 11 -11 11 -15 0 -22 -8 -5 -9 -9 -2 -9 6 0 12 -12 12 -26 0 -19 -5
-24 -17 -20 -13 5 -13 4 2 -8 19 -15 23 -31 5 -20 -8 5 -7 0 2 -11 12 -15 12
-17 1 -10 -11 6 -13 4 -8 -9 4 -10 3 -15 -3 -11 -10 6 -14 -7 -11 -34 2 -7 -2
-10 -8 -7 -6 4 -17 -1 -26 -11 -12 -14 -26 -17 -61 -14 -32 2 -42 6 -33 12 10
6 6 9 -13 9 -16 0 -28 5 -28 11 0 7 -8 18 -17 26 -17 14 -17 14 2 9 17 -5 18
-4 4 6 -9 8 -15 27 -14 51 0 20 -3 37 -8 37 -6 0 -6 5 0 13 5 6 9 24 8 40 -1
16 4 27 12 27 7 0 13 5 13 10 0 6 8 19 18 29 20 22 92 29 93 9z"/>
<path d="M915 1970 c3 -5 8 -10 11 -10 2 0 4 5 4 10 0 6 -5 10 -11 10 -5 0 -7
-4 -4 -10z"/>
<path d="M1494 2374 c3 -6 -15 -9 -52 -7 -31 1 -59 -2 -62 -7 -5 -8 -41 -17
-80 -19 -13 -1 -13 -2 0 -11 12 -8 11 -10 -8 -10 -15 0 -26 -9 -32 -25 -5 -14
-12 -25 -15 -25 -4 0 -3 6 1 13 4 7 3 9 -2 4 -9 -9 -10 -13 -13 -42 0 -8 -9
-15 -18 -15 -15 0 -16 -2 -3 -10 8 -5 10 -10 4 -10 -6 0 -10 -25 -10 -65 1
-36 -2 -65 -6 -65 -4 0 -3 -11 2 -25 5 -14 7 -25 4 -25 -4 0 0 -8 7 -17 8 -9
9 -14 3 -10 -6 3 -11 0 -11 -7 0 -8 6 -12 13 -9 7 3 14 -5 16 -19 2 -13 9 -22
16 -20 7 1 12 -9 12 -23 0 -23 13 -31 43 -26 4 0 7 -5 7 -13 0 -16 29 -23 87
-22 32 1 39 -2 35 -14 -4 -11 0 -10 15 3 21 18 22 18 32 0 10 -17 10 -17 11 2
0 17 2 17 10 5 7 -11 10 -11 10 -2 0 7 6 12 13 11 27 -3 48 1 43 10 -3 5 7 14
23 19 16 6 32 20 36 31 3 12 10 21 15 21 5 0 12 16 16 36 5 26 9 32 15 22 6
-8 9 31 8 99 -1 82 -5 116 -15 124 -8 6 -11 15 -8 20 3 5 -1 9 -9 9 -8 0 -17
9 -20 21 -4 14 -10 18 -19 13 -10 -6 -9 -3 1 10 8 9 10 16 5 15 -23 -4 -45 2
-39 11 3 6 -2 11 -12 12 -10 0 -23 2 -30 2 -7 1 -20 10 -28 21 -9 11 -14 15
-11 9z m-2 -132 c-3 -9 -1 -13 5 -9 18 11 41 -26 46 -73 3 -28 9 -44 17 -42 6
1 9 -2 5 -8 -3 -6 -10 -8 -13 -6 -4 2 -8 -16 -9 -41 -2 -45 -27 -83 -53 -83
-5 0 -10 -6 -10 -12 0 -9 -4 -8 -10 2 -8 13 -10 12 -10 -4 0 -20 0 -20 -16 0
-8 10 -13 13 -9 7 4 -9 -1 -13 -14 -13 -12 0 -21 5 -21 10 0 6 -7 10 -15 10
-8 0 -15 8 -15 18 0 14 -2 15 -10 2 -7 -10 -10 -11 -11 -2 -3 27 -4 31 -11 37
-4 4 -4 14 -1 23 4 10 2 13 -5 8 -7 -4 -12 -2 -12 3 0 6 5 11 10 11 6 0 10 5
10 11 0 5 -6 7 -12 3 -8 -5 -7 0 2 11 9 11 10 16 3 11 -8 -4 -13 -1 -13 9 0
10 5 13 12 9 7 -5 8 -3 2 7 -13 21 -13 38 -1 33 7 -2 13 7 13 21 3 41 41 65
101 63 41 -1 50 -4 45 -16z m173 -21 c3 -5 2 -12 -3 -15 -5 -3 -9 1 -9 9 0 17
3 19 12 6z"/>
<path d="M2985 2370 c-3 -5 -11 -7 -17 -4 -7 4 -8 2 -4 -4 4 -7 1 -12 -6 -13
-36 -2 -64 -11 -73 -23 -5 -7 -14 -14 -20 -14 -5 -1 -10 -7 -10 -12 0 -6 -6
-14 -12 -18 -7 -4 -14 -19 -17 -32 -2 -14 -9 -24 -15 -22 -6 1 -11 -12 -11
-33 0 -46 0 -48 -10 -60 -5 -6 -5 -17 0 -25 6 -8 10 -39 10 -68 0 -38 4 -54
16 -59 8 -3 13 -12 10 -19 -3 -8 1 -14 9 -14 8 0 15 -9 15 -21 0 -11 5 -17 10
-14 6 3 10 2 10 -4 0 -5 9 -13 20 -16 11 -4 18 -11 14 -16 -3 -6 0 -10 7 -8
29 3 40 -1 33 -13 -6 -10 -4 -10 8 0 13 10 17 10 21 0 4 -10 6 -10 6 0 1 15
31 16 31 1 0 -5 -4 -7 -10 -4 -5 3 -10 2 -10 -4 0 -5 9 -9 19 -8 11 0 17 5 15
9 -3 4 2 8 11 8 9 0 14 -4 11 -9 -7 -11 21 -8 31 4 5 4 1 5 -7 0 -8 -5 -12 -5
-8 0 5 5 20 10 35 12 56 7 67 10 71 21 2 7 8 10 13 6 5 -3 9 0 9 6 0 6 4 8 10
5 6 -4 7 1 3 11 -4 12 -3 15 5 10 7 -4 12 -1 12 9 0 9 4 14 9 11 10 -7 21 17
21 45 0 10 6 19 13 19 9 0 12 26 12 99 1 76 -2 98 -12 94 -9 -4 -13 5 -13 26
0 21 -5 31 -16 31 -8 0 -13 4 -9 9 3 5 1 12 -5 16 -6 4 -8 10 -5 15 3 4 -5 10
-16 13 -12 3 -18 10 -14 16 3 6 2 11 -4 11 -5 0 -12 -6 -14 -12 -4 -8 -6 -7
-6 3 -1 9 -7 17 -13 16 -36 -1 -49 4 -42 16 6 10 4 10 -7 0 -7 -7 -18 -13 -23
-13 -6 0 -5 4 2 9 11 7 11 9 -2 14 -9 4 -16 2 -16 -2 0 -5 -10 -7 -22 -3 -16
4 -19 2 -13 -9 5 -8 -1 -6 -12 4 -14 12 -23 15 -28 7z m98 -127 c-2 -7 4 -10
12 -7 10 4 15 0 15 -10 0 -9 6 -19 13 -22 16 -6 20 -50 15 -151 -2 -34 -6 -43
-20 -43 -11 0 -15 -5 -12 -15 4 -9 0 -15 -10 -15 -9 0 -16 -4 -16 -10 0 -5 -5
-10 -11 -10 -5 0 -8 4 -5 8 3 5 -1 9 -8 9 -8 0 -12 -5 -10 -12 3 -6 -5 -11
-16 -12 -12 -1 -24 5 -27 13 -3 8 -9 14 -15 14 -5 0 -6 -6 -2 -12 5 -9 3 -9
-9 1 -9 7 -14 17 -11 22 3 5 -2 9 -10 9 -15 0 -21 26 -19 78 1 9 -3 10 -11 3
-8 -7 -11 1 -10 32 3 74 3 74 14 57 7 -11 10 -5 10 24 0 35 2 37 17 25 10 -8
14 -9 10 -2 -4 6 -3 14 3 18 6 4 8 10 5 14 -2 5 21 8 53 7 39 -1 56 -5 55 -13z"/>
<path d="M3505 2364 c-8 -6 -11 -15 -7 -19 4 -5 2 -5 -5 -1 -16 9 -84 -26 -78
-41 2 -7 -2 -13 -10 -13 -8 0 -15 -6 -15 -14 0 -8 -7 -16 -15 -20 -8 -3 -15
-14 -15 -24 0 -10 -6 -24 -12 -31 -10 -11 -10 -13 0 -7 6 4 12 3 12 -2 0 -6
-7 -12 -15 -16 -16 -6 -17 -56 -2 -56 5 0 4 -7 -3 -15 -10 -12 -10 -18 0 -30
9 -10 9 -15 1 -15 -6 0 -11 -5 -11 -11 0 -6 6 -9 13 -6 7 3 13 -5 14 -22 3
-51 7 -70 15 -65 5 3 5 10 2 16 -4 6 -2 8 4 5 5 -4 9 -18 8 -32 -2 -13 0 -24
3 -23 19 2 31 -3 27 -11 -3 -5 8 -14 24 -20 17 -5 30 -15 30 -20 0 -6 7 -8 15
-5 8 4 23 0 32 -7 9 -8 14 -9 11 -4 -7 12 46 14 58 3 4 -4 -3 -6 -14 -3 -12 2
-24 0 -26 -4 -6 -9 80 -8 90 1 4 4 -4 5 -16 3 -12 -2 -20 -1 -16 2 12 12 40
12 55 0 12 -9 13 -9 7 1 -6 11 18 18 47 13 4 0 6 5 5 11 -2 7 3 12 10 10 8 -1
16 7 19 18 4 14 11 19 20 15 11 -3 13 -1 9 10 -3 10 1 15 12 16 10 0 12 3 5 6
-7 2 -13 9 -13 14 0 6 4 7 10 4 5 -3 12 7 16 22 10 48 14 54 26 48 7 -4 5 0
-4 8 -10 8 -18 17 -18 20 0 4 8 4 18 1 14 -5 14 -3 -2 10 -18 14 -18 16 -3 16
15 0 16 3 5 23 -6 12 -13 31 -13 42 -1 11 -5 38 -9 59 -6 29 -10 36 -17 25 -6
-10 -9 -7 -9 14 0 17 -5 27 -15 27 -8 0 -15 7 -15 15 0 8 -7 15 -16 15 -8 0
-12 5 -9 10 3 6 -3 11 -14 11 -40 3 -46 5 -43 19 3 11 0 11 -11 1 -11 -8 -16
-9 -19 -1 -5 15 -114 18 -133 4z m25 -4 c0 -5 -5 -10 -11 -10 -5 0 -7 5 -4 10
3 6 8 10 11 10 2 0 4 -4 4 -10z m94 -115 c3 -8 15 -15 27 -15 15 0 19 -5 15
-15 -3 -8 -1 -15 5 -15 6 0 8 -4 5 -9 -4 -5 -1 -11 5 -13 17 -6 18 -136 2
-142 -7 -3 -13 -12 -13 -21 0 -8 -6 -15 -12 -15 -9 0 -8 -4 2 -10 12 -8 9 -10
-12 -10 -16 0 -28 -4 -28 -10 0 -5 -5 -10 -11 -10 -5 0 -7 6 -4 13 4 6 1 5 -7
-3 -7 -9 -19 -15 -25 -14 -7 1 -18 2 -24 3 -5 0 -7 6 -4 11 3 6 -4 10 -18 10
-19 0 -26 7 -31 31 -3 17 -10 28 -15 25 -6 -4 -9 29 -9 79 0 66 3 85 14 85 8
0 14 7 14 15 0 8 6 15 14 15 8 0 16 7 20 15 3 10 19 15 45 15 25 0 41 -5 45
-15z"/>
<path d="M575 2350 c3 -5 8 -10 11 -10 2 0 4 5 4 10 0 6 -5 10 -11 10 -5 0 -7
-4 -4 -10z"/>
<path d="M1139 2168 c-4 -12 -5 -57 0 -53 6 6 10 55 4 55 -1 0 -3 -1 -4 -2z"/>
<path d="M2730 2124 c0 -8 5 -12 10 -9 6 4 8 11 5 16 -9 14 -15 11 -15 -7z"/>
<path d="M2774 2080 c0 -13 4 -16 10 -10 7 7 7 13 0 20 -6 6 -10 3 -10 -10z"/>
<path d="M2390 1900 c0 -5 5 -10 11 -10 5 0 7 5 4 10 -3 6 -8 10 -11 10 -2 0
-4 -4 -4 -10z"/>
</g>
</svg>
